<?xml version="1.0" encoding="UTF-8"?>
<!DOCTYPE svg PUBLIC "-//W3C//DTD SVG 1.1//EN" "http://www.w3.org/Graphics/SVG/1.1/DTD/svg11.dtd">
<!-- Creator: CorelDRAW -->
<svg xmlns="http://www.w3.org/2000/svg" xml:space="preserve" width="8.3506mm" height="8.348mm" version="1.1" style="shape-rendering:geometricPrecision; text-rendering:geometricPrecision; image-rendering:optimizeQuality; fill-rule:evenodd; clip-rule:evenodd"
viewBox="0 0 19.52 19.51"
 xmlns:xlink="http://www.w3.org/1999/xlink"
 xmlns:xodm="http://www.corel.com/coreldraw/odm/2003">
 <defs>
  <style type="text/css">
   <![CDATA[
    .fil1 {fill:url(#id0);fill-rule:nonzero}
    .fil0 {fill:url(#id1);fill-opacity:0.149020}
   ]]>
  </style>
  <linearGradient id="id0" gradientUnits="userSpaceOnUse" x1="0.55" y1="0" x2="28.21" y2="8.29">
   <stop offset="0" style="stop-opacity:1; stop-color:#FFDB6E"/>
   <stop offset="0.258824" style="stop-opacity:1; stop-color:#FFDB6E"/>
   <stop offset="1" style="stop-opacity:1; stop-color:#FFBC5E"/>
  </linearGradient>
  <linearGradient id="id1" gradientUnits="userSpaceOnUse" xlink:href="#id0" x1="2.11" y1="0.1" x2="26.03" y2="8.23">
  </linearGradient>
 </defs>
 <g id="Camada_x0020_1">
  <metadata id="CorelCorpID_0Corel-Layer"/>
  <path class="fil0" d="M3.54 13.13l-2.28 -1.83 0 -3.1 2.28 -1.83 0 -3.42 2.85 -1.31 0 1.04c0,0.22 0.18,0.4 0.4,0.4 0.22,0 0.4,-0.18 0.4,-0.4l-0 -2.58 5.13 0.05 0 2.58c0,0.22 0.18,0.4 0.4,0.4 0.22,0 0.4,-0.18 0.4,-0.4l0 -1.08 2.85 1.31 0 3.42 2.28 1.83 0 3.1 -2.28 1.83 0 3.42 -2.85 1.31 0 -1.04c0,-0.22 -0.18,-0.4 -0.4,-0.4 -0.22,0 -0.4,0.18 -0.4,0.4l-0 2.58 -5.13 -0.05 0 -2.57c0,-0.22 -0.18,-0.4 -0.4,-0.4 -0.22,0 -0.4,0.18 -0.4,0.4l0 1.04 -2.85 -1.31 0 -3.38z"/>
  <path class="fil1" d="M12.95 13.58c0.35,0 0.63,-0.28 0.63,-0.63l0 -1.65 0.97 0c0.22,0 0.4,-0.18 0.4,-0.4 0,-0.22 -0.18,-0.4 -0.4,-0.4l-0.97 0 0 -1.48 0.97 0c0.22,0 0.4,-0.18 0.4,-0.4 0,-0.22 -0.18,-0.4 -0.4,-0.4l-0.97 0 0 -1.65c0,-0.35 -0.28,-0.63 -0.63,-0.63l-1.65 0 0 -0.97c0,-0.22 -0.18,-0.4 -0.4,-0.4 -0.22,0 -0.4,0.18 -0.4,0.4l0 0.97 -1.48 0 0 -0.97c0,-0.22 -0.18,-0.4 -0.4,-0.4 -0.22,0 -0.4,0.18 -0.4,0.4l-0 0.97 -1.65 0c-0.35,0 -0.63,0.28 -0.63,0.63l0 1.65 -0.97 0c-0.22,0 -0.4,0.18 -0.4,0.4 0,0.22 0.18,0.4 0.4,0.4l0.97 0 0 1.48 -0.97 0c-0.22,0 -0.4,0.18 -0.4,0.4 0,0.22 0.18,0.4 0.4,0.4l0.97 0 0 1.65c0,0.35 0.28,0.63 0.63,0.63l1.65 0 0 0.97c0,0.22 0.18,0.4 0.4,0.4 0.22,0 0.4,-0.18 0.4,-0.4l0 -0.97 1.48 0 0 0.97c0,0.22 0.18,0.4 0.4,0.4 0.22,0 0.4,-0.18 0.4,-0.4l0 -0.97 1.65 0zm-6.22 -6.85l6.05 0 0 6.05 -6.05 0 0 -6.05zm1.94 4.11l2.17 0 0 -2.17 -2.17 0 0 2.17zm3.99 -10.79l-0.07 0 -0.2 0.07 -0.06 0.04 0 2.58c0,0.22 0.18,0.4 0.4,0.4 0.22,0 0.4,-0.18 0.4,-0.4l0 -1.08 2.85 1.31 0 3.42 2.28 1.83 0 3.1 -2.28 1.83 0 3.42 -2.85 1.31 0 -1.04c0,-0.22 -0.18,-0.4 -0.4,-0.4 -0.22,0 -0.4,0.18 -0.4,0.4l0 2.58 0.06 0.04 0.2 0.07 0.07 0 4.46 -2.03c0.06,-0.03 0.1,-0.09 0.1,-0.15l0 -3.55 2.21 -1.83 0.01 -0.01c0.04,-0.02 0.06,-0.06 0.06,-0.12l-0 -4.14 0 -0.03c0,-0.03 -0.02,-0.06 -0.04,-0.07l-0.02 -0.01 -2.22 -1.84 0 -3.51c-0,-0.06 -0.04,-0.13 -0.1,-0.15l-4.46 -2.03zm-5.73 -0.05l-0.07 0 -4.46 2.07c-0.06,0.03 -0.1,0.09 -0.11,0.15l0 3.51 -2.22 1.84 -0.02 0.01c-0.03,0.01 -0.04,0.04 -0.04,0.08l0 0.02 -0 4.15c0,0.04 0.02,0.08 0.06,0.1l0.01 0.01 2.21 1.83 0 3.51c0,0.06 0.04,0.13 0.1,0.15l4.46 2.03 0.07 0 0.2 -0.07 0.06 -0.04 0 -2.58c0,-0.22 -0.18,-0.4 -0.4,-0.4 -0.22,0 -0.4,0.18 -0.4,0.4l0 1.04 -2.85 -1.31 0 -3.38 -2.28 -1.83 0 -3.1 2.28 -1.83 0 -3.42 2.85 -1.31 0 1.04c0,0.22 0.18,0.4 0.4,0.4 0.22,0 0.4,-0.18 0.4,-0.4l0 -2.58 -0.06 -0.04 -0.2 -0.07z"/>
 </g>
</svg>
