<?xml version="1.0" encoding="UTF-8"?>
<!DOCTYPE svg PUBLIC "-//W3C//DTD SVG 1.1//EN" "http://www.w3.org/Graphics/SVG/1.1/DTD/svg11.dtd">
<!-- Creator: CorelDRAW -->
<svg xmlns="http://www.w3.org/2000/svg" xml:space="preserve" width="11.4411mm" height="10.4511mm" version="1.1" style="shape-rendering:geometricPrecision; text-rendering:geometricPrecision; image-rendering:optimizeQuality; fill-rule:evenodd; clip-rule:evenodd"
viewBox="0 0 38.23 34.92"
 xmlns:xlink="http://www.w3.org/1999/xlink"
 xmlns:xodm="http://www.corel.com/coreldraw/odm/2003">
 <defs>
  <style type="text/css">
   <![CDATA[
    .fil1 {fill:url(#id0);fill-rule:nonzero}
    .fil0 {fill:url(#id1);fill-opacity:0.149020}
   ]]>
  </style>
  <linearGradient id="id0" gradientUnits="userSpaceOnUse" x1="1.08" y1="0" x2="55.26" y2="14.84">
   <stop offset="0" style="stop-opacity:1; stop-color:#FFDB6E"/>
   <stop offset="0.258824" style="stop-opacity:1; stop-color:#FFDB6E"/>
   <stop offset="1" style="stop-opacity:1; stop-color:#FFBC5E"/>
  </linearGradient>
  <linearGradient id="id1" gradientUnits="userSpaceOnUse" xlink:href="#id0" x1="6.23" y1="0" x2="46.54" y2="14.19">
  </linearGradient>
 </defs>
 <g id="Camada_x0020_1">
  <metadata id="CorelCorpID_0Corel-Layer"/>
  <polygon class="fil0" points="33.44,31.79 25.58,31.79 25.53,33.56 20.49,33.71 20.32,31.79 4.79,31.79 4.79,3.14 12.63,3.14 12.63,0 20.89,0 20.89,3.14 33.44,3.14 33.44,18.99 "/>
  <path class="fil1" d="M33.44 18.99l3.39 -3.39 1.4 1.4 -5.78 5.78 -5.78 -5.78 1.4 -1.4 3.39 3.39 0 -13.88 -10.57 0 0 3.14 -8.26 0 0 -3.14 -5.86 0 0 4.71 -1.98 0 0 -6.69 7.84 0 0 -3.14 8.26 0 0 3.14 12.55 0 0 15.86zm-1.98 10.81l0 -4.71 1.98 0 0 6.69 -6.27 0 0 3.14 -8.26 0 0 -3.14 -14.12 0 0 -15.86 -3.39 3.39 -1.4 -1.4 5.78 -5.78 5.78 5.78 -1.4 1.4 -3.39 -3.39 0 13.88 12.14 0 0 -3.14 8.26 0 0 3.14 4.29 0zm-12.55 -23.53l0 -4.29 -4.29 0 0 4.29 4.29 0zm6.28 26.67l0 -4.29 -4.29 0 0 4.29 4.29 0z"/>
 </g>
</svg>
