<?xml version="1.0" encoding="UTF-8"?>
<!DOCTYPE svg PUBLIC "-//W3C//DTD SVG 1.1//EN" "http://www.w3.org/Graphics/SVG/1.1/DTD/svg11.dtd">
<!-- Creator: CorelDRAW -->
<svg xmlns="http://www.w3.org/2000/svg" xml:space="preserve" width="96.8274mm" height="133.258mm" version="1.1" style="shape-rendering:geometricPrecision; text-rendering:geometricPrecision; image-rendering:optimizeQuality; fill-rule:evenodd; clip-rule:evenodd"
viewBox="0 0 1442.41 1985.11"
 xmlns:xlink="http://www.w3.org/1999/xlink"
 xmlns:xodm="http://www.corel.com/coreldraw/odm/2003">
 <defs>
  <style type="text/css">
   <![CDATA[
    .fil0 {fill:black}
    .fil1 {fill:white;fill-rule:nonzero}
   ]]>
  </style>
 </defs>
 <g id="Camada_x0020_1">
  <metadata id="CorelCorpID_0Corel-Layer"/>
  <path class="fil0" d="M1300.61 754.17c13.41,2.69 25.49,10.36 34.1,22.2 11.18,15.38 22.92,28.59 32.72,45.21 15.79,26.78 23.05,55.9 16.91,86.84 -20.15,113.02 -52.38,224.01 -96.68,329.95 5.27,4.34 10.38,9.41 15.42,15.65 0.53,0.65 0.97,1.22 1.46,1.89 23.64,31.96 17.44,66.69 1.51,99.91 -0.32,0.67 -0.61,1.24 -0.96,1.9 -41.57,78.9 -89.68,154.19 -141.83,226.49 46,72.3 81.51,151.29 104.17,233.96 0.11,0.39 0.2,0.73 0.29,1.12 8.33,33.04 17.89,55.24 5.11,90.16 -9.49,25.92 -35.68,40.96 -62.85,36.09 -17.74,-3.18 -33.81,-9.53 -47.42,-21.41 -57.58,-46.22 -107.72,-100.43 -153.07,-158.45 -23.14,22.83 -47.43,44.46 -71.39,66.8 -57.7,53.82 -121.12,101.26 -187.65,143.6 -18.77,11.95 -41.3,12.03 -60.16,0.21 -66.55,-41.69 -129.38,-89.42 -187.15,-142.63 -24.45,-22.52 -48.99,-44.86 -72.56,-68.18 -43.79,56.47 -92.65,109.01 -147.82,154.55 -15.72,14.2 -35.2,23.23 -56.28,25.89 -29.99,3.79 -57.63,-16.77 -62.62,-46.59 -3,-17.91 -4.54,-32.84 0.52,-50.47 22.68,-93.43 60.2,-183.52 112.27,-264.41 -52.32,-73.6 -101.62,-149.4 -143.2,-229.67 -0.33,-0.64 -0.6,-1.19 -0.91,-1.84 -14,-29.64 -19.55,-60.34 -2.05,-90.25 1.22,-2.09 2.38,-3.81 3.85,-5.73 5.75,-7.53 11.67,-13.49 17.88,-18.56 -40.23,-95.63 -69.62,-195.66 -90.84,-297.18 -0.11,-0.51 -0.19,-0.94 -0.28,-1.46 -6.34,-34.94 -13.33,-62.69 1.03,-97.79 0.62,-1.51 1.2,-2.78 1.94,-4.24 11.17,-21.92 25.48,-40.68 39.59,-60.67 8.88,-12.58 21.63,-20.59 35.84,-23.09 3.07,-54.39 14.85,-108.19 34.27,-159.11 -23.87,4.05 -47.81,-4.3 -63.92,-23.82 -19.8,-23.59 -34.92,-44.97 -31.99,-78 0.93,-10.49 4.18,-19.27 10.32,-27.83 9.37,-13.08 19.74,-20.65 32.56,-29.8 0.49,-0.35 0.92,-0.65 1.43,-0.98 19.52,-13.05 38.48,-26.84 57.64,-40.36 -31.09,-52.18 -63.04,-103.84 -95.22,-155.36 -30.11,-4.32 -57.39,-20.39 -72.07,-50.14 -35.69,-72.35 8.47,-167.36 87.22,-185.83 41.28,-9.68 86.28,6.65 108.59,43.47 15.45,24.12 18.85,51.15 15.08,78.04 40.33,51.14 83.15,100.3 124.27,150.83 7.43,-5.11 14.89,-10.23 22.29,-15.51 0.46,-0.33 0.86,-0.61 1.33,-0.92 21.62,-14.52 39.5,-29.49 63.57,-40.6 20.57,-9.48 43.39,-6.24 60.5,8.6 18.45,16 32.02,35.89 42.82,57.66 8.89,17.91 8,37.55 -2.48,54.58 -5.11,8.3 -11.01,15.43 -17.62,21.86 1.24,0 2.48,0 3.72,0 61.11,0.03 122.23,0.68 183.34,-0.1 5.2,-0.07 10.17,0.49 14.9,1.67 4.55,-1.13 9.34,-1.69 14.34,-1.68 62.92,0.21 125.84,0.47 188.75,0.3 -2.18,-1.91 -4.35,-3.88 -6.48,-5.93 -14.28,-13.69 -20.11,-32.17 -16.28,-51.58 6.52,-33.05 26.83,-63.99 56.62,-80.45 12.26,-6.77 24.95,-8.69 38.66,-5.86 24.89,5.15 35.27,15.75 55.22,28.4 1.12,0.71 2.06,1.35 3.13,2.14 13.48,9.88 27.28,19.16 40.99,28.56 41.05,-50.41 82.93,-100.15 123.75,-150.75 -3.73,-27.17 -0.38,-54.3 15.56,-78.72 22.9,-36.88 68.6,-53.4 110.24,-42.56 76.73,19.98 120.63,112.22 85.69,183.93 -14.58,29.92 -41.89,46.61 -72.23,51.34 -32.4,51.42 -64.64,102.97 -95.51,155.33 18.25,12.83 36.3,25.93 54.78,38.51 1.43,0.98 2.62,1.86 3.85,2.87 4.92,3.73 10.04,6.71 15.08,10.9 14.54,12.1 24.57,27.73 27.91,46.54 1.3,7.33 1.22,13.8 -0.26,21.1 -5.6,27.5 -21.81,49.31 -42.16,67.81 -7.63,6.94 -15.75,11.14 -25.82,13.35 -11.02,2.42 -20.33,2.34 -28.97,0.46 19.28,50.48 31,103.86 33.71,157.81zm-901.17 142.12c5.05,29.8 20.53,75.41 53.22,85.2 16.98,3.37 35.83,3.75 54.85,3.44 0.07,-95.57 -0.24,-191.13 -0.63,-286.7 -13.82,-0.08 -27.63,-0.07 -41.44,0.33 -19.72,0.57 -37.41,16.64 -46.75,33.02 -27.7,48.59 -27.13,110.9 -19.25,164.71zm533.35 -198.14c-0.02,95.35 -0.06,190.7 0,286.05 13.2,0.02 26.41,-0.01 39.61,-0.21 14.37,-0.22 28.91,-7 38.61,-17.58 22.44,-26.64 30.85,-64.71 33.27,-98.63 3.23,-45.23 0.65,-96.94 -23.43,-136.71 -0.23,-0.37 -0.42,-0.69 -0.63,-1.07 -8.94,-15.53 -25.85,-29.96 -44.42,-31.27 -14.32,-0.56 -28.67,-0.64 -43.02,-0.57z"/>
  <g id="_1633568873136">
   <path class="fil1" d="M112.61 57.59c17.71,-3.94 38.42,2.1 47.88,18.39 12.14,18.34 8.51,41.94 2.05,61.75 56.12,73.36 118.35,141.79 174.79,214.89 20.6,-17.34 43.51,-31.58 65.37,-47.19 18.39,-12.35 35.47,-26.85 55.76,-36.21 12.67,10.98 21.86,25.22 29.27,40.15 -11.77,19.13 -33.9,27.06 -50.08,41.57 -85.55,59.8 -170.9,119.92 -256.46,179.68 -8.09,5.04 -19.71,14.66 -27.96,4.47 -8.83,-10.51 -20.55,-22.23 -19.23,-37.05 5.04,-7.04 12.51,-11.77 19.5,-16.76 34.26,-22.91 66.85,-48.19 101.74,-70.16 -44.93,-77.25 -92.12,-153.19 -139.53,-228.92 -19.18,3.73 -42.88,0.74 -52.66,-18.55 -19.44,-39.94 5.89,-95.59 49.56,-106.05z"/>
   <path class="fil1" d="M1281.84 77.04c9.72,-16.24 30.59,-23.12 48.51,-18.29 42.62,10.93 68.74,65.06 49.24,104.74 -9.46,19.76 -33.32,23.44 -52.82,19.92 -47.66,75.57 -95.38,151.14 -139.47,228.87 33.79,21.02 65.38,45.25 98.27,67.64 8.36,6.83 20.97,11.77 23.07,23.59 -3.05,14.98 -13.82,27.33 -24.86,37.37 -9.09,2 -16.29,-5.41 -23.54,-9.51 -83.24,-58.54 -166.43,-117.19 -250.04,-175.21 -17.92,-14.29 -37.94,-25.85 -54.55,-41.78 3.31,-16.76 13.56,-33.74 28.59,-42.04 13.98,2.89 24.7,13.35 36.47,20.81 27.9,20.44 57.6,38.42 84.45,60.33 57.23,-72.05 117.14,-141.84 174.42,-213.78 -6.25,-20.13 -10.25,-44.04 2.26,-62.64z"/>
   <path class="fil1" d="M388.88 428.35c42.94,-13.56 88.5,-10.93 132.9,-11.25 61.38,0.37 122.71,0.68 184.09,-0.11 -1.47,434.92 0.1,869.79 -0.89,1304.72 -51.24,-31.37 -97.27,-70.21 -141.05,-111.15 -0.63,-128.6 0.42,-257.29 -0.42,-385.89 -36.05,87.03 -71.52,174.32 -107.21,261.5 -36.73,-50.03 -68.53,-103.42 -98.22,-157.81 12.46,-29.01 24.8,-58.07 37.37,-87.03 -39.36,-17.97 -76.73,-43.09 -102.16,-78.72 -13.4,-17.81 -20.92,-39.05 -28.9,-59.65 -35.42,-94.7 -62.96,-193.5 -68.58,-294.87 -6.57,-107.89 27.49,-216.72 90.34,-304.17 25.96,-34.37 60.7,-63.64 102.74,-75.57zm-19.13 275.32l0 0c-34.9,60.44 -35.89,134.06 -25.96,201.38 9.09,54.55 37.63,115.72 95.59,131.22 40.78,8.62 82.98,2.47 124.39,4.36 0.32,-132.91 -0.21,-265.76 -0.79,-398.61 -33.05,0.47 -66.11,-0.63 -99.17,0.21 -39.83,1.26 -75.1,27.38 -94.07,61.43z"/>
   <path class="fil1" d="M734.62 1721.98c-0.21,-434.97 0.53,-869.95 -0.42,-1304.98 77.94,0.26 155.87,0.79 233.8,0.11 40.68,-0.05 82.72,5.83 118.66,26.06 46.61,26.01 77.83,71.58 102.27,117.66 36.94,69.11 57.07,147.46 55.86,225.92 -2.73,116.35 -35.1,229.76 -77.46,337.39 -20.6,55.18 -70.26,93.91 -122.81,116.82 12.24,29.22 24.86,58.23 37.42,87.29 -29.9,54.39 -61.33,108.1 -98.38,157.97 -35.42,-87.24 -71,-174.42 -106.94,-261.45 -0.79,128.65 0.42,257.29 -0.58,385.94 -43.93,40.89 -90.13,79.83 -141.42,111.25zm141.84 -1079.79l0 0c0,132.8 -0.1,265.6 0.05,398.4 32.22,-0.31 64.48,0.26 96.75,-0.26 30.32,-0.42 59.96,-14.24 80.14,-36.79 31.11,-36.42 43.3,-84.98 47.09,-131.75 3.68,-57.75 -0.79,-119.29 -31.43,-169.9 -18.6,-32.32 -52.39,-57.18 -90.34,-59.44 -34.05,-1.37 -68.16,-0.11 -102.27,-0.26z"/>
   <path class="fil1" d="M114.29 863.32c9.77,-19.18 23.07,-36.26 35.42,-53.76 36.16,177.21 88.87,352.26 170.95,513.91 90.76,179.62 228.6,336.91 399.77,443.8 160.6,-101.85 293.03,-246.73 383.21,-414.01 61.96,-114.2 107.1,-236.8 142.84,-361.51 16.71,-60.12 32.32,-120.66 42.67,-182.25 18.92,26.01 47.14,53.02 39.83,88.39 -22.28,125.28 -59.96,248.05 -113.04,363.77 15.08,7.88 32.27,14.08 43.3,27.75 9.56,12.93 2.1,29.32 -4,42.04 -46.4,88.08 -101.27,171.53 -160.76,251.25 53.34,75.89 94.07,160.81 118.61,250.36 4.68,18.55 13.87,37.79 6.83,57.02 -7.62,-1.37 -15.19,-3.63 -20.97,-8.99 -72,-57.54 -131.75,-128.81 -184.88,-203.64 -33.9,41.99 -75.15,77.09 -114.41,113.83 -55.23,51.4 -115.88,96.8 -179.47,137.27 -63.59,-39.84 -123.81,-85.34 -178.89,-136.32 -40.15,-36.73 -80.67,-73.36 -116.09,-114.77 -51.08,73.78 -109.99,142.94 -179.47,200.07 -7.31,6.88 -16.34,11.25 -26.33,12.51 -1.47,-8.78 -3.36,-17.81 -0.63,-26.49 24.12,-100.11 66.43,-196.28 126.6,-280 -59.17,-81.35 -115.56,-165.17 -161.91,-254.67 -5.41,-11.46 -11.4,-25.7 -4.36,-37.73 11.19,-14.66 29.06,-21.39 44.88,-29.8 -49.24,-105.63 -83.66,-217.72 -107.47,-331.66 -3.94,-21.7 -11.04,-44.93 -2.26,-66.37z"/>
  </g>
 </g>
</svg>
